<svg width="112" height="37" viewBox="0 0 112 37" fill="none" xmlns="http://www.w3.org/2000/svg">
<g clip-path="url(#clip0_63_664)">
<g clip-path="url(#clip1_63_664)">
<path d="M9.82514 2.69283C9.78775 2.62068 9.76494 2.54188 9.75801 2.46092C9.75109 2.37995 9.76018 2.29842 9.78477 2.22097C9.80936 2.14353 9.84897 2.07168 9.90134 2.00955C9.95371 1.94741 10.0178 1.8962 10.09 1.85885C12.3042 0.732861 14.7639 0.175628 17.2472 0.237385C19.7305 0.299142 22.1595 0.977947 24.315 2.2126C24.3857 2.25326 24.4477 2.30752 24.4973 2.37224C24.5469 2.43697 24.5833 2.51088 24.6042 2.58971C24.6251 2.66854 24.6302 2.75074 24.6192 2.83155C24.6082 2.91237 24.5813 2.99021 24.5401 3.06058L17.419 15.2819C17.3647 15.3755 17.2866 15.4531 17.1928 15.507C17.099 15.5609 16.9926 15.5892 16.8844 15.5891H16.8687C16.7578 15.5861 16.6498 15.5535 16.5558 15.4947C16.4618 15.4359 16.3852 15.353 16.3341 15.2546L9.82514 2.69283ZM16.5024 18.8484V18.8472L9.99323 6.28538C9.91763 6.13995 9.78756 6.03033 9.63143 5.98046C9.4753 5.93059 9.30577 5.94452 9.15987 6.0192C7.4251 6.9087 5.88307 8.13205 4.6223 9.61902C3.36152 11.106 2.40682 12.8273 1.81298 14.6842C1.21914 16.5411 0.997864 18.497 1.16185 20.4396C1.32583 22.3822 1.87184 24.2733 2.76855 26.0044C3.66525 27.7354 4.89499 29.2723 6.38719 30.5269C7.87939 31.7815 9.60467 32.7291 11.464 33.3152C13.3233 33.9013 15.2801 34.1144 17.222 33.9424C19.1639 33.7703 21.0528 33.2165 22.7801 32.3126C22.9252 32.2366 23.0343 32.1063 23.0837 31.9502C23.1331 31.794 23.1188 31.6247 23.0438 31.4791L16.5024 18.8484ZM24.1324 30.7219L24.182 30.821C24.2568 30.9671 24.3857 31.0782 24.5412 31.1307C24.605 31.1518 24.6723 31.1602 24.7394 31.1554C24.8374 31.1527 24.934 31.1317 25.0243 31.0935C25.2497 30.9818 25.4689 30.8577 25.6807 30.7219C26.3107 30.3564 26.9112 29.9423 27.4768 29.4833H23.4883L24.1324 30.7219ZM22.8443 28.2446H28.8269C29.2115 27.8581 29.5676 27.4442 29.8921 27.006H22.2002L22.8443 28.2446ZM21.5685 25.7673H30.7716C31.0253 25.3697 31.2528 24.9559 31.4528 24.5287H20.9244L21.5685 25.7673ZM20.2803 23.2901H31.9978C32.1622 22.8857 32.3028 22.4721 32.4189 22.0514H19.6362L20.2803 23.2901ZM18.9921 20.8128H32.7286C32.8029 20.404 32.8649 19.9953 32.902 19.5741H18.3604L18.9921 20.8128ZM25.6312 5.15636C25.5617 5.11313 25.4837 5.08524 25.4025 5.07456C25.3214 5.06388 25.2389 5.07065 25.1605 5.09443C25.0803 5.11275 25.0047 5.14753 24.9386 5.19657C24.8725 5.24561 24.8173 5.30784 24.7765 5.37931L24.4421 5.94909H26.8327C26.4466 5.66355 26.0456 5.39893 25.6312 5.15636ZM28.3314 7.18773H23.7237L23.0053 8.42637H29.5081C29.1417 7.98976 28.7487 7.5761 28.3314 7.18773ZM30.4371 9.66501H22.2745L21.5561 10.9037H31.1927C30.9692 10.4741 30.7168 10.0603 30.4371 9.66501ZM31.7872 12.1423H20.8377L20.1192 13.3809H32.2703C32.133 12.9592 31.9717 12.5456 31.7872 12.1423ZM32.6171 14.6196H19.3884L18.67 15.8582H32.8401C32.7909 15.4412 32.7165 15.0276 32.6171 14.6196ZM32.9639 17.0969H17.9516L17.6543 17.6047C17.6007 17.6941 17.5713 17.796 17.5691 17.9003C17.5669 18.0046 17.5921 18.1077 17.642 18.1992L17.7163 18.3355H32.9887C33.0011 18.2116 33.0011 18.0754 33.0011 17.9515C33.0011 17.6666 32.9887 17.3817 32.9639 17.0969Z" fill="white"/>
<path d="M9.54053 5.40696C9.31349 4.97673 8.77911 4.80993 8.36227 5.06072C5.0624 7.04608 2.59701 10.182 1.4536 13.8808C0.223229 17.861 0.624355 22.1669 2.56873 25.8512C4.51311 29.5356 7.84147 32.2967 11.8216 33.5271C15.5204 34.6705 19.5006 34.4049 23.0018 32.801C23.4441 32.5985 23.608 32.0632 23.3809 31.6329L16.4607 18.52L9.54053 5.40696Z" fill="white"/>
</g>
<path d="M55.1013 6.48689C57.6516 6.48689 59.6387 7.10322 61.0626 8.33586C62.5078 9.54726 63.2304 11.2687 63.2304 13.5002C63.2304 15.7317 62.5078 17.4638 61.0626 18.6965C59.6387 19.9079 57.6516 20.5136 55.1013 20.5136H50.9252V27.5269H45.442V6.48689H55.1013ZM54.2406 16.4012C56.5571 16.4012 57.7153 15.4342 57.7153 13.5002C57.7153 11.5662 56.5571 10.5993 54.2406 10.5993H50.9252V16.4012H54.2406ZM66.3535 27.5269V11.5875H71.1353L71.3585 15.0304C71.741 13.8615 72.3255 12.9477 73.1118 12.2888C73.9194 11.6087 74.9501 11.2687 76.204 11.2687C76.6078 11.2687 76.9479 11.3112 77.2242 11.3962C77.5217 11.46 77.7555 11.5344 77.9255 11.6194L77.3836 16.0824C77.171 16.0186 76.8947 15.9549 76.5547 15.8911C76.2359 15.8274 75.8427 15.7955 75.3752 15.7955C74.3976 15.7955 73.5475 16.1037 72.8249 16.72C72.1236 17.3363 71.7729 18.2608 71.7729 19.4934V27.5269H66.3535ZM87.643 27.8457C84.9865 27.8457 82.8825 27.1231 81.331 25.6779C79.8009 24.2327 79.0358 22.1925 79.0358 19.5572C79.0358 17.8145 79.3864 16.3268 80.0878 15.0942C80.8104 13.8403 81.788 12.8945 83.0206 12.257C84.2745 11.5981 85.7303 11.2687 87.388 11.2687C89.067 11.2687 90.4909 11.5981 91.6598 12.257C92.8499 12.8945 93.7531 13.7871 94.3695 14.9348C94.9858 16.0612 95.2939 17.3576 95.2939 18.824C95.2939 19.2278 95.2727 19.6209 95.2302 20.0035C95.2089 20.3648 95.1877 20.6729 95.1664 20.928H84.2958C84.4445 22.0331 84.8058 22.8301 85.3796 23.3189C85.9535 23.7864 86.7079 24.0202 87.643 24.0202C88.4506 24.0202 89.0882 23.8608 89.5558 23.542C90.0446 23.2233 90.4059 22.7769 90.6396 22.2031L94.9752 23.6377C94.6776 24.5515 94.1569 25.3273 93.4131 25.9648C92.6905 26.5811 91.8192 27.0487 90.799 27.3675C89.8002 27.6863 88.7482 27.8457 87.643 27.8457ZM87.388 15.0623C85.6666 15.0623 84.6464 16.0505 84.3276 18.027H90.1615C89.9277 16.0505 89.0032 15.0623 87.388 15.0623ZM105.02 27.8457C103.426 27.8457 101.949 27.5906 100.589 27.0806C99.2289 26.5493 98.0919 25.7948 97.178 24.8172L99.7283 21.8206C100.26 22.5007 100.961 23.0745 101.832 23.542C102.725 23.9883 103.713 24.2115 104.797 24.2115C105.456 24.2115 105.998 24.1159 106.423 23.9246C106.848 23.7333 107.06 23.4358 107.06 23.032C107.06 22.7557 106.954 22.5219 106.742 22.3306C106.529 22.1394 106.104 21.98 105.467 21.8525L103.235 21.4062C101.237 21.0024 99.8133 20.4073 98.9632 19.6209C98.1344 18.8134 97.72 17.7614 97.72 16.465C97.72 15.5936 97.9856 14.7647 98.5169 13.9784C99.0483 13.1921 99.8665 12.5439 100.972 12.0338C102.077 11.5237 103.49 11.2687 105.211 11.2687C108.506 11.2687 110.907 12.1826 112.416 14.0103L109.834 16.9431C109.324 16.3056 108.665 15.8061 107.857 15.4448C107.05 15.0835 106.242 14.9029 105.435 14.9029C103.883 14.9029 103.107 15.2961 103.107 16.0824C103.107 16.3587 103.235 16.6031 103.49 16.8156C103.766 17.0281 104.266 17.1982 104.988 17.3257L107.889 17.8995C109.526 18.2183 110.705 18.7708 111.428 19.5572C112.15 20.3223 112.512 21.2574 112.512 22.3625C112.512 23.914 111.885 25.221 110.631 26.2836C109.398 27.325 107.528 27.8457 105.02 27.8457ZM126.736 11.5875V15.4448H121.986V21.8525C121.986 22.6176 122.167 23.1701 122.528 23.5102C122.911 23.8289 123.431 23.9883 124.09 23.9883C124.6 23.9883 125.036 23.9352 125.397 23.8289C125.759 23.7014 126.099 23.5208 126.417 23.287L126.991 26.6343C126.46 26.9956 125.78 27.2931 124.951 27.5269C124.143 27.7394 123.325 27.8457 122.496 27.8457C120.669 27.8457 119.223 27.4631 118.161 26.698C117.119 25.9117 116.588 24.594 116.567 22.7451V15.4448H113.825V11.5875H116.567V8.01707L121.986 6.51877V11.5875H126.736ZM136.827 11.2687C138.505 11.2687 139.972 11.5981 141.226 12.257C142.501 12.9158 143.489 13.8615 144.191 15.0942C144.913 16.3268 145.274 17.8145 145.274 19.5572C145.274 21.2999 144.913 22.7876 144.191 24.0202C143.489 25.2529 142.501 26.1986 141.226 26.8574C139.972 27.5163 138.505 27.8457 136.827 27.8457C135.169 27.8457 133.702 27.5163 132.427 26.8574C131.173 26.1986 130.185 25.2529 129.463 24.0202C128.761 22.7876 128.411 21.2999 128.411 19.5572C128.411 17.8145 128.761 16.3268 129.463 15.0942C130.185 13.8615 131.173 12.9158 132.427 12.257C133.702 11.5981 135.169 11.2687 136.827 11.2687ZM136.827 15.126C135.891 15.126 135.158 15.4767 134.627 16.178C134.117 16.8581 133.862 17.9845 133.862 19.5572C133.862 21.1086 134.117 22.235 134.627 22.9363C135.158 23.6377 135.891 23.9883 136.827 23.9883C137.783 23.9883 138.516 23.6377 139.026 22.9363C139.557 22.235 139.823 21.1086 139.823 19.5572C139.823 17.9845 139.557 16.8581 139.026 16.178C138.516 15.4767 137.783 15.126 136.827 15.126Z" fill="white"/>
</g>
<defs>
<clipPath id="clip0_63_664">
<rect width="146.513" height="41.2903" fill="white" transform="translate(0.665222 -4.47311)"/>
</clipPath>
<clipPath id="clip1_63_664">
<rect width="32.745" height="34.8351" fill="white" transform="translate(0.47406 -0.319336)"/>
</clipPath>
</defs>
</svg>
