<svg width="1173" height="93" viewBox="0 0 1173 93" fill="none" xmlns="http://www.w3.org/2000/svg">
<g clip-path="url(#clip0_709_758)">
<path d="M62.7677 63.45V37.3391H73.1214C74.8863 37.3391 76.3309 37.6957 77.4551 38.4089C78.5914 39.11 79.4316 40.0106 79.9755 41.1107C80.5316 42.2107 80.8096 43.347 80.8096 44.5196C80.8096 45.9581 80.4651 47.179 79.7761 48.1824C79.0991 49.1857 78.1744 49.8627 77.0018 50.2132V49.3066C78.6458 49.6813 79.8909 50.461 80.7371 51.6457C81.5954 52.8304 82.0245 54.1782 82.0245 55.6893C82.0245 57.2366 81.7284 58.5905 81.136 59.751C80.5437 60.9115 79.6613 61.8181 78.4887 62.4709C77.3282 63.1236 75.8897 63.45 74.1731 63.45H62.7677ZM67.1921 59.3339H73.6291C74.3907 59.3339 75.0737 59.1828 75.6781 58.8806C76.2825 58.5663 76.754 58.1311 77.0925 57.5751C77.443 57.0069 77.6183 56.336 77.6183 55.5623C77.6183 54.8612 77.4672 54.2326 77.165 53.6766C76.8628 53.1205 76.4216 52.6793 75.8413 52.3529C75.2611 52.0144 74.566 51.8452 73.7561 51.8452H67.1921V59.3339ZM67.1921 47.7653H73.067C73.6956 47.7653 74.2577 47.6444 74.7534 47.4027C75.249 47.1609 75.6419 46.8043 75.932 46.3329C76.2221 45.8614 76.3672 45.2812 76.3672 44.5921C76.3672 43.6855 76.077 42.93 75.4968 42.3256C74.9166 41.7211 74.1066 41.4189 73.067 41.4189H67.1921V47.7653ZM94.2952 63.994C92.3369 63.994 90.6264 63.5528 89.1637 62.6703C87.701 61.7879 86.5647 60.573 85.7547 59.0257C84.9569 57.4663 84.558 55.6772 84.558 53.6584C84.558 51.6034 84.969 49.8022 85.791 48.2549C86.613 46.7076 87.7554 45.4988 89.2181 44.6284C90.6808 43.758 92.3731 43.3229 94.2952 43.3229C96.2656 43.3229 97.9821 43.7641 99.4448 44.6465C100.908 45.529 102.044 46.7499 102.854 48.3093C103.664 49.8566 104.069 51.6397 104.069 53.6584C104.069 55.6893 103.658 57.4844 102.836 59.0438C102.026 60.5911 100.889 61.806 99.4267 62.6884C97.964 63.5588 96.2535 63.994 94.2952 63.994ZM94.2952 59.896C96.0359 59.896 97.3294 59.3158 98.1756 58.1553C99.0217 56.9948 99.4448 55.4959 99.4448 53.6584C99.4448 51.7605 99.0157 50.2495 98.1574 49.1253C97.2991 47.989 96.0117 47.4208 94.2952 47.4208C93.1226 47.4208 92.1555 47.6868 91.394 48.2186C90.6445 48.7384 90.0884 49.4698 89.7258 50.4127C89.3631 51.3435 89.1818 52.4254 89.1818 53.6584C89.1818 55.5563 89.6109 57.0734 90.4692 58.2097C91.3396 59.3339 92.6149 59.896 94.2952 59.896ZM108.426 63.45V36.7951H112.796V63.45H108.426ZM126.079 63.994C124.278 63.994 122.707 63.5407 121.365 62.634C120.023 61.7274 118.983 60.4944 118.246 58.935C117.509 57.3756 117.14 55.6167 117.14 53.6584C117.14 51.6759 117.509 49.911 118.246 48.3637C118.996 46.8043 120.053 45.5773 121.419 44.6828C122.785 43.7762 124.393 43.3229 126.243 43.3229C128.104 43.3229 129.664 43.7762 130.921 44.6828C132.19 45.5773 133.151 46.8043 133.804 48.3637C134.457 49.9231 134.783 51.688 134.783 53.6584C134.783 55.6047 134.457 57.3635 133.804 58.935C133.151 60.4944 132.178 61.7274 130.884 62.634C129.591 63.5407 127.989 63.994 126.079 63.994ZM126.75 60.0774C127.923 60.0774 128.866 59.8114 129.579 59.2795C130.304 58.7355 130.83 57.98 131.156 57.0129C131.495 56.0459 131.664 54.9277 131.664 53.6584C131.664 52.3771 131.495 51.2589 131.156 50.3039C130.83 49.3368 130.316 48.5873 129.615 48.0555C128.914 47.5115 128.007 47.2395 126.895 47.2395C125.723 47.2395 124.756 47.5296 123.994 48.1099C123.233 48.678 122.67 49.4517 122.308 50.4308C121.945 51.3979 121.764 52.4738 121.764 53.6584C121.764 54.8552 121.939 55.9431 122.29 56.9223C122.652 57.8894 123.202 58.657 123.94 59.2251C124.677 59.7933 125.614 60.0774 126.75 60.0774ZM131.664 63.45V49.7055H131.12V37.3391H135.526V63.45H131.664ZM149.26 63.994C147.301 63.994 145.591 63.5528 144.128 62.6703C142.665 61.7879 141.529 60.573 140.719 59.0257C139.921 57.4663 139.522 55.6772 139.522 53.6584C139.522 51.6034 139.933 49.8022 140.755 48.2549C141.577 46.7076 142.72 45.4988 144.182 44.6284C145.645 43.758 147.338 43.3229 149.26 43.3229C151.23 43.3229 152.947 43.7641 154.409 44.6465C155.872 45.529 157.008 46.7499 157.818 48.3093C158.628 49.8566 159.033 51.6397 159.033 53.6584C159.033 55.6893 158.622 57.4844 157.8 59.0438C156.99 60.5911 155.854 61.806 154.391 62.6884C152.928 63.5588 151.218 63.994 149.26 63.994ZM149.26 59.896C151 59.896 152.294 59.3158 153.14 58.1553C153.986 56.9948 154.409 55.4959 154.409 53.6584C154.409 51.7605 153.98 50.2495 153.122 49.1253C152.264 47.989 150.976 47.4208 149.26 47.4208C148.087 47.4208 147.12 47.6868 146.358 48.2186C145.609 48.7384 145.053 49.4698 144.69 50.4127C144.327 51.3435 144.146 52.4254 144.146 53.6584C144.146 55.5563 144.575 57.0734 145.434 58.2097C146.304 59.3339 147.579 59.896 149.26 59.896Z" fill="white"/>
<path d="M27 49.45H41.3176C46.201 49.45 50.1597 53.4088 50.1597 58.2921V58.2921C50.1597 63.1755 46.201 67.1343 41.3176 67.1343H27V49.45Z" fill="white"/>
<path d="M27 33.9764H36.4795C40.1421 33.9764 43.1111 36.9454 43.1111 40.608V40.608C43.1111 44.2705 40.1421 47.2395 36.4795 47.2395H27V33.9764Z" fill="white"/>
<g clip-path="url(#clip1_709_758)">
<g clip-path="url(#clip2_709_758)">
<path d="M237.34 35.6928C237.302 35.6207 237.279 35.5418 237.272 35.4609C237.265 35.3799 237.275 35.2984 237.299 35.2209C237.324 35.1435 237.363 35.0717 237.416 35.0095C237.468 34.9474 237.532 34.8962 237.604 34.8588C239.819 33.7328 242.278 33.1756 244.762 33.2374C247.245 33.2991 249.674 33.9779 251.829 35.2126C251.9 35.2532 251.962 35.3075 252.012 35.3722C252.061 35.4369 252.098 35.5108 252.119 35.5897C252.139 35.6685 252.145 35.7507 252.134 35.8315C252.123 35.9123 252.096 35.9902 252.054 36.0605L244.933 48.2818C244.879 48.3754 244.801 48.4531 244.707 48.507C244.613 48.5609 244.507 48.5892 244.399 48.589H244.383C244.272 48.5861 244.164 48.5535 244.07 48.4947C243.976 48.4359 243.9 48.353 243.848 48.2546L237.34 35.6928ZM244.017 51.8484V51.8471L237.508 39.2853C237.432 39.1399 237.302 39.0303 237.146 38.9804C236.99 38.9306 236.82 38.9445 236.674 39.0192C234.939 39.9087 233.397 41.132 232.137 42.619C230.876 44.106 229.921 45.8273 229.327 47.6842C228.734 49.541 228.512 51.4969 228.676 53.4395C228.84 55.3822 229.386 57.2733 230.283 59.0043C231.18 60.7354 232.409 62.2723 233.902 63.5269C235.394 64.7815 237.119 65.729 238.978 66.3151C240.838 66.9013 242.794 67.1144 244.736 66.9424C246.678 66.7703 248.567 66.2164 250.294 65.3125C250.44 65.2366 250.549 65.1063 250.598 64.9501C250.647 64.794 250.633 64.6247 250.558 64.4791L244.017 51.8484ZM251.647 63.7219L251.696 63.821C251.771 63.9671 251.9 64.0782 252.056 64.1306C252.119 64.1518 252.187 64.1602 252.254 64.1554C252.352 64.1527 252.448 64.1317 252.539 64.0935C252.764 63.9817 252.983 63.8577 253.195 63.7219C253.825 63.3564 254.426 62.9422 254.991 62.4832H251.003L251.647 63.7219ZM250.359 61.2446H256.341C256.726 60.8581 257.082 60.4441 257.406 60.006H249.715L250.359 61.2446ZM249.083 58.7673H258.286C258.54 58.3696 258.767 57.9559 258.967 57.5287H248.439L249.083 58.7673ZM247.795 56.29H259.512C259.677 55.8857 259.817 55.4721 259.933 55.0514H247.151L247.795 56.29ZM246.506 53.8127H260.243C260.317 53.404 260.379 52.9952 260.416 52.5741H245.875L246.506 53.8127ZM253.146 38.1563C253.076 38.1131 252.998 38.0852 252.917 38.0745C252.836 38.0638 252.753 38.0706 252.675 38.0944C252.595 38.1127 252.519 38.1475 252.453 38.1965C252.387 38.2456 252.332 38.3078 252.291 38.3793L251.956 38.9491H254.347C253.961 38.6635 253.56 38.3989 253.146 38.1563ZM255.846 40.1877H251.238L250.52 41.4263H257.023C256.656 40.9897 256.263 40.5761 255.846 40.1877ZM257.951 42.665H249.789L249.07 43.9036H258.707C258.484 43.4741 258.231 43.0603 257.951 42.665ZM259.302 45.1423H248.352L247.634 46.3809H259.785C259.647 45.9592 259.486 45.5456 259.302 45.1423ZM260.132 47.6195H246.903L246.184 48.8582H260.354C260.305 48.4412 260.231 48.0275 260.132 47.6195ZM260.478 50.0968H245.466L245.169 50.6047C245.115 50.6941 245.086 50.796 245.083 50.9003C245.081 51.0046 245.106 51.1076 245.156 51.1992L245.231 51.3355H260.503C260.515 51.2116 260.515 51.0754 260.515 50.9515C260.515 50.6666 260.503 50.3817 260.478 50.0968Z" fill="white"/>
<path d="M237.055 38.407C236.828 37.9767 236.294 37.8099 235.877 38.0607C232.577 40.0461 230.111 43.182 228.968 46.8808C227.738 50.861 228.139 55.1669 230.083 58.8512C232.028 62.5356 235.356 65.2967 239.336 66.5271C243.035 67.6705 247.015 67.4049 250.516 65.801C250.958 65.5985 251.122 65.0632 250.895 64.6329L243.975 51.52L237.055 38.407Z" fill="white"/>
</g>
<path d="M282.616 39.4869C284.337 39.4869 285.804 39.7632 287.015 40.3157C288.226 40.8683 289.151 41.6653 289.788 42.7067C290.426 43.748 290.745 45.0125 290.745 46.5002C290.745 47.9879 290.426 49.2524 289.788 50.2938C289.151 51.3352 288.226 52.1321 287.015 52.6847C285.804 53.2373 284.337 53.5136 282.616 53.5136H278.44V60.5269H272.956V39.4869H282.616ZM281.755 49.4012C282.903 49.4012 283.763 49.1674 284.337 48.6999C284.932 48.2111 285.23 47.4778 285.23 46.5002C285.23 45.5226 284.932 44.8 284.337 44.3325C283.763 43.8437 282.903 43.5993 281.755 43.5993H278.44V49.4012H281.755ZM293.868 60.5269V44.5875H298.65L298.873 48.0304C299.277 46.8403 299.872 45.9158 300.658 45.257C301.466 44.5981 302.486 44.2687 303.718 44.2687C304.122 44.2687 304.462 44.3006 304.739 44.3643C305.036 44.4281 305.27 44.5131 305.44 44.6194L304.898 49.0824C304.685 48.9974 304.409 48.9336 304.069 48.8911C303.75 48.8274 303.357 48.7955 302.89 48.7955C302.252 48.7955 301.657 48.9336 301.104 49.2099C300.552 49.4862 300.106 49.9006 299.765 50.4532C299.447 50.9845 299.287 51.6646 299.287 52.4934V60.5269H293.868ZM315.157 60.8457C313.393 60.8457 311.863 60.5163 310.567 59.8574C309.292 59.1986 308.304 58.2529 307.602 57.0202C306.901 55.7876 306.55 54.2999 306.55 52.5572C306.55 50.8145 306.901 49.3268 307.602 48.0942C308.304 46.8615 309.281 45.9158 310.535 45.257C311.81 44.5981 313.266 44.2687 314.902 44.2687C316.581 44.2687 318.005 44.5981 319.174 45.257C320.364 45.8945 321.268 46.7871 321.884 47.9348C322.5 49.0612 322.808 50.3576 322.808 51.824C322.808 52.2065 322.798 52.5891 322.776 52.9716C322.755 53.3542 322.723 53.6729 322.681 53.928H310.057V51.027H320.29L317.708 52.0153C317.708 50.7401 317.474 49.7625 317.006 49.0824C316.56 48.4023 315.859 48.0623 314.902 48.0623C314.222 48.0623 313.638 48.2217 313.149 48.5405C312.682 48.8593 312.32 49.3587 312.065 50.0388C311.831 50.7188 311.715 51.5902 311.715 52.6528C311.715 53.6942 311.853 54.5443 312.129 55.2031C312.405 55.8407 312.798 56.3083 313.308 56.6058C313.819 56.8821 314.435 57.0202 315.157 57.0202C315.965 57.0202 316.603 56.8608 317.07 56.542C317.559 56.2233 317.92 55.7769 318.154 55.2031L322.49 56.6377C322.192 57.5515 321.671 58.3273 320.928 58.9648C320.205 59.5811 319.334 60.0487 318.313 60.3675C317.315 60.6863 316.263 60.8457 315.157 60.8457ZM332.535 60.8457C330.941 60.8457 329.453 60.5906 328.072 60.0806C326.711 59.5493 325.585 58.7948 324.692 57.8172L327.243 54.8206C327.774 55.5007 328.475 56.0745 329.347 56.542C330.239 56.9883 331.228 57.2115 332.311 57.2115C332.97 57.2115 333.512 57.1159 333.937 56.9246C334.362 56.7333 334.575 56.4358 334.575 56.032C334.575 55.7344 334.469 55.5007 334.256 55.3306C334.044 55.1394 333.619 54.98 332.981 54.8525L330.749 54.4062C328.752 54.0024 327.328 53.4073 326.478 52.6209C325.649 51.8134 325.234 50.7614 325.234 49.465C325.234 48.5936 325.5 47.7647 326.031 46.9784C326.563 46.1708 327.381 45.5226 328.486 45.0338C329.591 44.5237 331.004 44.2687 332.726 44.2687C334.341 44.2687 335.765 44.5025 336.998 44.97C338.23 45.4376 339.208 46.1177 339.93 47.0103L337.348 49.9431C336.838 49.3056 336.179 48.8061 335.372 48.4448C334.564 48.0835 333.757 47.9029 332.949 47.9029C332.439 47.9029 332.003 47.956 331.642 48.0623C331.302 48.1473 331.047 48.2748 330.877 48.4448C330.707 48.6148 330.622 48.8274 330.622 49.0824C330.622 49.3587 330.749 49.6031 331.004 49.8156C331.281 50.0069 331.78 50.1769 332.503 50.3257L335.404 50.8995C337.04 51.197 338.22 51.739 338.942 52.5253C339.665 53.3117 340.026 54.2574 340.026 55.3625C340.026 56.4039 339.75 57.339 339.197 58.1679C338.645 58.9967 337.816 59.6555 336.711 60.1443C335.606 60.6119 334.214 60.8457 332.535 60.8457ZM349.501 39.5188V54.8525C349.501 55.6176 349.681 56.1701 350.043 56.5102C350.425 56.8289 350.946 56.9883 351.605 56.9883C352.115 56.9883 352.55 56.9352 352.912 56.8289C353.294 56.7014 353.634 56.5208 353.932 56.287L354.506 59.6343C353.974 60.0168 353.305 60.3144 352.497 60.5269C351.69 60.7394 350.861 60.8457 350.011 60.8457C348.799 60.8457 347.747 60.6757 346.855 60.3356C345.983 59.9956 345.303 59.4536 344.814 58.7098C344.347 57.966 344.102 56.9777 344.081 55.7451V41.0171L349.501 39.5188ZM354.251 44.5875V48.4448H341.34V44.5875H354.251ZM364.341 44.2687C366.02 44.2687 367.486 44.5981 368.74 45.257C370.015 45.8945 371.004 46.8403 371.705 48.0942C372.428 49.3268 372.789 50.8145 372.789 52.5572C372.789 54.2999 372.428 55.7982 371.705 57.0521C371.004 58.2847 370.015 59.2305 368.74 59.8893C367.486 60.5269 366.02 60.8457 364.341 60.8457C362.704 60.8457 361.249 60.5269 359.974 59.8893C358.698 59.2305 357.7 58.2847 356.977 57.0521C356.276 55.7982 355.925 54.2999 355.925 52.5572C355.925 50.8145 356.276 49.3268 356.977 48.0942C357.7 46.8403 358.698 45.8945 359.974 45.257C361.249 44.5981 362.704 44.2687 364.341 44.2687ZM364.341 48.126C363.725 48.126 363.193 48.2748 362.747 48.5723C362.301 48.8699 361.961 49.3481 361.727 50.0069C361.493 50.6657 361.376 51.5158 361.376 52.5572C361.376 53.5986 361.493 54.4487 361.727 55.1075C361.961 55.7451 362.301 56.2233 362.747 56.542C363.193 56.8396 363.725 56.9883 364.341 56.9883C364.978 56.9883 365.52 56.8396 365.967 56.542C366.413 56.2233 366.753 55.7451 366.987 55.1075C367.221 54.4487 367.338 53.5986 367.338 52.5572C367.338 51.5158 367.221 50.6657 366.987 50.0069C366.753 49.3481 366.413 48.8699 365.967 48.5723C365.52 48.2748 364.978 48.126 364.341 48.126Z" fill="white"/>
</g>
<path d="M466.15 63.45V37.3391H476.504C478.269 37.3391 479.713 37.6957 480.837 38.4089C481.974 39.11 482.814 40.0106 483.358 41.1107C483.914 42.2107 484.192 43.347 484.192 44.5196C484.192 45.9581 483.847 47.179 483.158 48.1824C482.481 49.1857 481.557 49.8627 480.384 50.2132V49.3066C482.028 49.6813 483.273 50.461 484.119 51.6457C484.978 52.8304 485.407 54.1782 485.407 55.6893C485.407 57.2366 485.111 58.5905 484.518 59.751C483.926 60.9115 483.044 61.8181 481.871 62.4709C480.711 63.1236 479.272 63.45 477.555 63.45H466.15ZM470.574 59.3339H477.012C477.773 59.3339 478.456 59.1828 479.06 58.8806C479.665 58.5663 480.136 58.1311 480.475 57.5751C480.825 57.0069 481.001 56.336 481.001 55.5623C481.001 54.8612 480.85 54.2326 480.547 53.6766C480.245 53.1205 479.804 52.6793 479.224 52.3529C478.643 52.0144 477.948 51.8452 477.138 51.8452H470.574V59.3339ZM470.574 47.7653H476.449C477.078 47.7653 477.64 47.6444 478.136 47.4027C478.631 47.1609 479.024 46.8043 479.314 46.3329C479.604 45.8614 479.75 45.2812 479.75 44.5921C479.75 43.6855 479.459 42.93 478.879 42.3256C478.299 41.7211 477.489 41.4189 476.449 41.4189H470.574V47.7653ZM497.678 63.994C495.719 63.994 494.009 63.5528 492.546 62.6703C491.083 61.7879 489.947 60.573 489.137 59.0257C488.339 57.4663 487.94 55.6772 487.94 53.6584C487.94 51.6034 488.351 49.8022 489.173 48.2549C489.995 46.7076 491.138 45.4988 492.6 44.6284C494.063 43.758 495.755 43.3229 497.678 43.3229C499.648 43.3229 501.364 43.7641 502.827 44.6465C504.29 45.529 505.426 46.7499 506.236 48.3093C507.046 49.8566 507.451 51.6397 507.451 53.6584C507.451 55.6893 507.04 57.4844 506.218 59.0438C505.408 60.5911 504.272 61.806 502.809 62.6884C501.346 63.5588 499.636 63.994 497.678 63.994ZM497.678 59.896C499.418 59.896 500.712 59.3158 501.558 58.1553C502.404 56.9948 502.827 55.4959 502.827 53.6584C502.827 51.7605 502.398 50.2495 501.54 49.1253C500.682 47.989 499.394 47.4208 497.678 47.4208C496.505 47.4208 495.538 47.6868 494.776 48.2186C494.027 48.7384 493.471 49.4698 493.108 50.4127C492.745 51.3435 492.564 52.4254 492.564 53.6584C492.564 55.5563 492.993 57.0734 493.852 58.2097C494.722 59.3339 495.997 59.896 497.678 59.896ZM511.809 63.45V36.7951H516.179V63.45H511.809ZM529.462 63.994C527.661 63.994 526.089 63.5407 524.747 62.634C523.405 61.7274 522.366 60.4944 521.628 58.935C520.891 57.3756 520.522 55.6167 520.522 53.6584C520.522 51.6759 520.891 49.911 521.628 48.3637C522.378 46.8043 523.436 45.5773 524.802 44.6828C526.168 43.7762 527.775 43.3229 529.625 43.3229C531.486 43.3229 533.046 43.7762 534.303 44.6828C535.572 45.5773 536.533 46.8043 537.186 48.3637C537.839 49.9231 538.165 51.688 538.165 53.6584C538.165 55.6047 537.839 57.3635 537.186 58.935C536.533 60.4944 535.56 61.7274 534.267 62.634C532.973 63.5407 531.372 63.994 529.462 63.994ZM530.133 60.0774C531.305 60.0774 532.248 59.8114 532.961 59.2795C533.687 58.7355 534.212 57.98 534.539 57.0129C534.877 56.0459 535.047 54.9277 535.047 53.6584C535.047 52.3771 534.877 51.2589 534.539 50.3039C534.212 49.3368 533.699 48.5873 532.998 48.0555C532.296 47.5115 531.39 47.2395 530.278 47.2395C529.105 47.2395 528.138 47.5296 527.376 48.1099C526.615 48.678 526.053 49.4517 525.69 50.4308C525.327 51.3979 525.146 52.4738 525.146 53.6584C525.146 54.8552 525.321 55.9431 525.672 56.9223C526.035 57.8894 526.585 58.657 527.322 59.2251C528.059 59.7933 528.996 60.0774 530.133 60.0774ZM535.047 63.45V49.7055H534.503V37.3391H538.909V63.45H535.047ZM552.642 63.994C550.684 63.994 548.973 63.5528 547.51 62.6703C546.048 61.7879 544.911 60.573 544.101 59.0257C543.304 57.4663 542.905 55.6772 542.905 53.6584C542.905 51.6034 543.316 49.8022 544.138 48.2549C544.96 46.7076 546.102 45.4988 547.565 44.6284C549.027 43.758 550.72 43.3229 552.642 43.3229C554.612 43.3229 556.329 43.7641 557.792 44.6465C559.254 45.529 560.391 46.7499 561.2 48.3093C562.01 49.8566 562.415 51.6397 562.415 53.6584C562.415 55.6893 562.004 57.4844 561.182 59.0438C560.372 60.5911 559.236 61.806 557.773 62.6884C556.311 63.5588 554.6 63.994 552.642 63.994ZM552.642 59.896C554.383 59.896 555.676 59.3158 556.522 58.1553C557.368 56.9948 557.792 55.4959 557.792 53.6584C557.792 51.7605 557.362 50.2495 556.504 49.1253C555.646 47.989 554.358 47.4208 552.642 47.4208C551.469 47.4208 550.502 47.6868 549.741 48.2186C548.991 48.7384 548.435 49.4698 548.072 50.4127C547.71 51.3435 547.529 52.4254 547.529 53.6584C547.529 55.5563 547.958 57.0734 548.816 58.2097C549.686 59.3339 550.962 59.896 552.642 59.896Z" fill="white"/>
<path d="M430.382 49.45H444.7C449.583 49.45 453.542 53.4088 453.542 58.2921V58.2921C453.542 63.1755 449.583 67.1343 444.7 67.1343H430.382V49.45Z" fill="white"/>
<path d="M430.382 33.9764H439.862C443.524 33.9764 446.493 36.9454 446.493 40.608V40.608C446.493 44.2705 443.524 47.2395 439.862 47.2395H430.382V33.9764Z" fill="white"/>
<g clip-path="url(#clip3_709_758)">
<g clip-path="url(#clip4_709_758)">
<path d="M641.082 35.6928C641.045 35.6207 641.022 35.5418 641.015 35.4609C641.008 35.3799 641.017 35.2984 641.042 35.2209C641.067 35.1435 641.106 35.0717 641.159 35.0095C641.211 34.9474 641.275 34.8962 641.347 34.8588C643.561 33.7328 646.021 33.1756 648.504 33.2374C650.988 33.2991 653.417 33.9779 655.572 35.2126C655.643 35.2532 655.705 35.3075 655.755 35.3722C655.804 35.4369 655.84 35.5108 655.861 35.5897C655.882 35.6685 655.887 35.7507 655.876 35.8315C655.865 35.9123 655.839 35.9902 655.797 36.0605L648.676 48.2818C648.622 48.3754 648.544 48.4531 648.45 48.507C648.356 48.5609 648.25 48.5892 648.142 48.589H648.126C648.015 48.5861 647.907 48.5535 647.813 48.4947C647.719 48.4359 647.642 48.353 647.591 48.2546L641.082 35.6928ZM647.76 51.8484V51.8471L641.25 39.2853C641.175 39.1399 641.045 39.0303 640.889 38.9804C640.733 38.9306 640.563 38.9445 640.417 39.0192C638.682 39.9087 637.14 41.132 635.88 42.619C634.619 44.106 633.664 45.8273 633.07 47.6842C632.476 49.541 632.255 51.4969 632.419 53.4395C632.583 55.3822 633.129 57.2733 634.026 59.0043C634.922 60.7354 636.152 62.2723 637.644 63.5269C639.137 64.7815 640.862 65.729 642.721 66.3151C644.581 66.9013 646.537 67.1144 648.479 66.9424C650.421 66.7703 652.31 66.2164 654.037 65.3125C654.182 65.2366 654.292 65.1063 654.341 64.9501C654.39 64.794 654.376 64.6247 654.301 64.4791L647.76 51.8484ZM655.39 63.7219L655.439 63.821C655.514 63.9671 655.643 64.0782 655.798 64.1306C655.862 64.1518 655.93 64.1602 655.997 64.1554C656.095 64.1527 656.191 64.1317 656.281 64.0935C656.507 63.9817 656.726 63.8577 656.938 63.7219C657.568 63.3564 658.168 62.9422 658.734 62.4832H654.746L655.39 63.7219ZM654.101 61.2446H660.084C660.469 60.8581 660.825 60.4441 661.149 60.006H653.457L654.101 61.2446ZM652.826 58.7673H662.029C662.282 58.3696 662.51 57.9559 662.71 57.5287H652.182L652.826 58.7673ZM651.537 56.29H663.255C663.419 55.8857 663.56 55.4721 663.676 55.0514H650.893L651.537 56.29ZM650.249 53.8127H663.986C664.06 53.404 664.122 52.9952 664.159 52.5741H649.618L650.249 53.8127ZM656.888 38.1563C656.819 38.1131 656.741 38.0852 656.66 38.0745C656.579 38.0638 656.496 38.0706 656.418 38.0944C656.338 38.1127 656.262 38.1475 656.196 38.1965C656.13 38.2456 656.075 38.3078 656.034 38.3793L655.699 38.9491H658.09C657.704 38.6635 657.303 38.3989 656.888 38.1563ZM659.589 40.1877H654.981L654.263 41.4263H660.765C660.399 40.9897 660.006 40.5761 659.589 40.1877ZM661.694 42.665H653.532L652.813 43.9036H662.45C662.226 43.4741 661.974 43.0603 661.694 42.665ZM663.044 45.1423H652.095L651.376 46.3809H663.528C663.39 45.9592 663.229 45.5456 663.044 45.1423ZM663.874 47.6195H650.646L649.927 48.8582H664.097C664.048 48.4412 663.974 48.0275 663.874 47.6195ZM664.221 50.0968H649.209L648.912 50.6047C648.858 50.6941 648.829 50.796 648.826 50.9003C648.824 51.0046 648.849 51.1076 648.899 51.1992L648.974 51.3355H664.246C664.258 51.2116 664.258 51.0754 664.258 50.9515C664.258 50.6666 664.246 50.3817 664.221 50.0968Z" fill="white"/>
<path d="M640.798 38.407C640.571 37.9767 640.036 37.8099 639.62 38.0607C636.32 40.0461 633.854 43.182 632.711 46.8808C631.48 50.861 631.882 55.1669 633.826 58.8512C635.77 62.5356 639.099 65.2967 643.079 66.5271C646.778 67.6705 650.758 67.4049 654.259 65.801C654.701 65.5985 654.865 65.0632 654.638 64.6329L647.718 51.52L640.798 38.407Z" fill="white"/>
</g>
<path d="M686.359 39.4869C688.08 39.4869 689.546 39.7632 690.758 40.3157C691.969 40.8683 692.894 41.6653 693.531 42.7067C694.169 43.748 694.488 45.0125 694.488 46.5002C694.488 47.9879 694.169 49.2524 693.531 50.2938C692.894 51.3352 691.969 52.1321 690.758 52.6847C689.546 53.2373 688.08 53.5136 686.359 53.5136H682.182V60.5269H676.699V39.4869H686.359ZM685.498 49.4012C686.645 49.4012 687.506 49.1674 688.08 48.6999C688.675 48.2111 688.973 47.4778 688.973 46.5002C688.973 45.5226 688.675 44.8 688.08 44.3325C687.506 43.8437 686.645 43.5993 685.498 43.5993H682.182V49.4012H685.498ZM697.611 60.5269V44.5875H702.393L702.616 48.0304C703.02 46.8403 703.615 45.9158 704.401 45.257C705.209 44.5981 706.229 44.2687 707.461 44.2687C707.865 44.2687 708.205 44.3006 708.481 44.3643C708.779 44.4281 709.013 44.5131 709.183 44.6194L708.641 49.0824C708.428 48.9974 708.152 48.9336 707.812 48.8911C707.493 48.8274 707.1 48.7955 706.632 48.7955C705.995 48.7955 705.4 48.9336 704.847 49.2099C704.295 49.4862 703.848 49.9006 703.508 50.4532C703.19 50.9845 703.03 51.6646 703.03 52.4934V60.5269H697.611ZM718.9 60.8457C717.136 60.8457 715.606 60.5163 714.31 59.8574C713.035 59.1986 712.046 58.2529 711.345 57.0202C710.644 55.7876 710.293 54.2999 710.293 52.5572C710.293 50.8145 710.644 49.3268 711.345 48.0942C712.046 46.8615 713.024 45.9158 714.278 45.257C715.553 44.5981 717.009 44.2687 718.645 44.2687C720.324 44.2687 721.748 44.5981 722.917 45.257C724.107 45.8945 725.01 46.7871 725.627 47.9348C726.243 49.0612 726.551 50.3576 726.551 51.824C726.551 52.2065 726.541 52.5891 726.519 52.9716C726.498 53.3542 726.466 53.6729 726.424 53.928H713.8V51.027H724.033L721.451 52.0153C721.451 50.7401 721.217 49.7625 720.749 49.0824C720.303 48.4023 719.602 48.0623 718.645 48.0623C717.965 48.0623 717.381 48.2217 716.892 48.5405C716.424 48.8593 716.063 49.3587 715.808 50.0388C715.574 50.7188 715.457 51.5902 715.457 52.6528C715.457 53.6942 715.596 54.5443 715.872 55.2031C716.148 55.8407 716.541 56.3083 717.051 56.6058C717.561 56.8821 718.178 57.0202 718.9 57.0202C719.708 57.0202 720.345 56.8608 720.813 56.542C721.302 56.2233 721.663 55.7769 721.897 55.2031L726.232 56.6377C725.935 57.5515 725.414 58.3273 724.67 58.9648C723.948 59.5811 723.076 60.0487 722.056 60.3675C721.057 60.6863 720.005 60.8457 718.9 60.8457ZM736.277 60.8457C734.684 60.8457 733.196 60.5906 731.814 60.0806C730.454 59.5493 729.328 58.7948 728.435 57.8172L730.986 54.8206C731.517 55.5007 732.218 56.0745 733.09 56.542C733.982 56.9883 734.97 57.2115 736.054 57.2115C736.713 57.2115 737.255 57.1159 737.68 56.9246C738.105 56.7333 738.318 56.4358 738.318 56.032C738.318 55.7344 738.211 55.5007 737.999 55.3306C737.786 55.1394 737.361 54.98 736.724 54.8525L734.492 54.4062C732.495 54.0024 731.071 53.4073 730.221 52.6209C729.392 51.8134 728.977 50.7614 728.977 49.465C728.977 48.5936 729.243 47.7647 729.774 46.9784C730.306 46.1708 731.124 45.5226 732.229 45.0338C733.334 44.5237 734.747 44.2687 736.469 44.2687C738.084 44.2687 739.508 44.5025 740.741 44.97C741.973 45.4376 742.951 46.1177 743.673 47.0103L741.091 49.9431C740.581 49.3056 739.922 48.8061 739.115 48.4448C738.307 48.0835 737.499 47.9029 736.692 47.9029C736.182 47.9029 735.746 47.956 735.385 48.0623C735.045 48.1473 734.79 48.2748 734.62 48.4448C734.45 48.6148 734.365 48.8274 734.365 49.0824C734.365 49.3587 734.492 49.6031 734.747 49.8156C735.024 50.0069 735.523 50.1769 736.246 50.3257L739.147 50.8995C740.783 51.197 741.963 51.739 742.685 52.5253C743.408 53.3117 743.769 54.2574 743.769 55.3625C743.769 56.4039 743.493 57.339 742.94 58.1679C742.388 58.9967 741.559 59.6555 740.454 60.1443C739.348 60.6119 737.956 60.8457 736.277 60.8457ZM753.243 39.5188V54.8525C753.243 55.6176 753.424 56.1701 753.785 56.5102C754.168 56.8289 754.689 56.9883 755.347 56.9883C755.858 56.9883 756.293 56.9352 756.654 56.8289C757.037 56.7014 757.377 56.5208 757.675 56.287L758.248 59.6343C757.717 60.0168 757.048 60.3144 756.24 60.5269C755.432 60.7394 754.604 60.8457 753.754 60.8457C752.542 60.8457 751.49 60.6757 750.598 60.3356C749.726 59.9956 749.046 59.4536 748.557 58.7098C748.09 57.966 747.845 56.9777 747.824 55.7451V41.0171L753.243 39.5188ZM757.993 44.5875V48.4448H745.082V44.5875H757.993ZM768.084 44.2687C769.763 44.2687 771.229 44.5981 772.483 45.257C773.758 45.8945 774.746 46.8403 775.448 48.0942C776.17 49.3268 776.532 50.8145 776.532 52.5572C776.532 54.2999 776.17 55.7982 775.448 57.0521C774.746 58.2847 773.758 59.2305 772.483 59.8893C771.229 60.5269 769.763 60.8457 768.084 60.8457C766.447 60.8457 764.992 60.5269 763.716 59.8893C762.441 59.2305 761.442 58.2847 760.72 57.0521C760.018 55.7982 759.668 54.2999 759.668 52.5572C759.668 50.8145 760.018 49.3268 760.72 48.0942C761.442 46.8403 762.441 45.8945 763.716 45.257C764.992 44.5981 766.447 44.2687 768.084 44.2687ZM768.084 48.126C767.467 48.126 766.936 48.2748 766.49 48.5723C766.044 48.8699 765.703 49.3481 765.47 50.0069C765.236 50.6657 765.119 51.5158 765.119 52.5572C765.119 53.5986 765.236 54.4487 765.47 55.1075C765.703 55.7451 766.044 56.2233 766.49 56.542C766.936 56.8396 767.467 56.9883 768.084 56.9883C768.721 56.9883 769.263 56.8396 769.71 56.542C770.156 56.2233 770.496 55.7451 770.73 55.1075C770.963 54.4487 771.08 53.5986 771.08 52.5572C771.08 51.5158 770.963 50.6657 770.73 50.0069C770.496 49.3481 770.156 48.8699 769.71 48.5723C769.263 48.2748 768.721 48.126 768.084 48.126Z" fill="white"/>
</g>
<path d="M869.532 63.45V37.3391H879.886C881.651 37.3391 883.096 37.6957 884.22 38.4089C885.356 39.11 886.196 40.0106 886.74 41.1107C887.296 42.2107 887.574 43.347 887.574 44.5196C887.574 45.9581 887.23 47.179 886.541 48.1824C885.864 49.1857 884.939 49.8627 883.766 50.2132V49.3066C885.41 49.6813 886.656 50.461 887.502 51.6457C888.36 52.8304 888.789 54.1782 888.789 55.6893C888.789 57.2366 888.493 58.5905 887.901 59.751C887.308 60.9115 886.426 61.8181 885.253 62.4709C884.093 63.1236 882.654 63.45 880.938 63.45H869.532ZM873.957 59.3339H880.394C881.155 59.3339 881.838 59.1828 882.443 58.8806C883.047 58.5663 883.519 58.1311 883.857 57.5751C884.208 57.0069 884.383 56.336 884.383 55.5623C884.383 54.8612 884.232 54.2326 883.93 53.6766C883.627 53.1205 883.186 52.6793 882.606 52.3529C882.026 52.0144 881.331 51.8452 880.521 51.8452H873.957V59.3339ZM873.957 47.7653H879.832C880.46 47.7653 881.022 47.6444 881.518 47.4027C882.014 47.1609 882.407 46.8043 882.697 46.3329C882.987 45.8614 883.132 45.2812 883.132 44.5921C883.132 43.6855 882.842 42.93 882.261 42.3256C881.681 41.7211 880.871 41.4189 879.832 41.4189H873.957V47.7653ZM901.06 63.994C899.102 63.994 897.391 63.5528 895.928 62.6703C894.466 61.7879 893.329 60.573 892.519 59.0257C891.722 57.4663 891.323 55.6772 891.323 53.6584C891.323 51.6034 891.734 49.8022 892.556 48.2549C893.378 46.7076 894.52 45.4988 895.983 44.6284C897.445 43.758 899.138 43.3229 901.06 43.3229C903.03 43.3229 904.747 43.7641 906.209 44.6465C907.672 45.529 908.809 46.7499 909.618 48.3093C910.428 49.8566 910.833 51.6397 910.833 53.6584C910.833 55.6893 910.422 57.4844 909.6 59.0438C908.79 60.5911 907.654 61.806 906.191 62.6884C904.729 63.5588 903.018 63.994 901.06 63.994ZM901.06 59.896C902.801 59.896 904.094 59.3158 904.94 58.1553C905.786 56.9948 906.209 55.4959 906.209 53.6584C906.209 51.7605 905.78 50.2495 904.922 49.1253C904.064 47.989 902.776 47.4208 901.06 47.4208C899.887 47.4208 898.92 47.6868 898.159 48.2186C897.409 48.7384 896.853 49.4698 896.49 50.4127C896.128 51.3435 895.946 52.4254 895.946 53.6584C895.946 55.5563 896.376 57.0734 897.234 58.2097C898.104 59.3339 899.38 59.896 901.06 59.896ZM915.191 63.45V36.7951H919.561V63.45H915.191ZM932.844 63.994C931.043 63.994 929.471 63.5407 928.13 62.634C926.788 61.7274 925.748 60.4944 925.011 58.935C924.273 57.3756 923.905 55.6167 923.905 53.6584C923.905 51.6759 924.273 49.911 925.011 48.3637C925.76 46.8043 926.818 45.5773 928.184 44.6828C929.55 43.7762 931.158 43.3229 933.007 43.3229C934.869 43.3229 936.428 43.7762 937.685 44.6828C938.955 45.5773 939.916 46.8043 940.568 48.3637C941.221 49.9231 941.548 51.688 941.548 53.6584C941.548 55.6047 941.221 57.3635 940.568 58.935C939.916 60.4944 938.943 61.7274 937.649 62.634C936.356 63.5407 934.754 63.994 932.844 63.994ZM933.515 60.0774C934.687 60.0774 935.63 59.8114 936.344 59.2795C937.069 58.7355 937.595 57.98 937.921 57.0129C938.26 56.0459 938.429 54.9277 938.429 53.6584C938.429 52.3771 938.26 51.2589 937.921 50.3039C937.595 49.3368 937.081 48.5873 936.38 48.0555C935.679 47.5115 934.772 47.2395 933.66 47.2395C932.487 47.2395 931.52 47.5296 930.759 48.1099C929.997 48.678 929.435 49.4517 929.072 50.4308C928.71 51.3979 928.528 52.4738 928.528 53.6584C928.528 54.8552 928.704 55.9431 929.054 56.9223C929.417 57.8894 929.967 58.657 930.704 59.2251C931.442 59.7933 932.379 60.0774 933.515 60.0774ZM938.429 63.45V49.7055H937.885V37.3391H942.291V63.45H938.429ZM956.024 63.994C954.066 63.994 952.355 63.5528 950.893 62.6703C949.43 61.7879 948.294 60.573 947.484 59.0257C946.686 57.4663 946.287 55.6772 946.287 53.6584C946.287 51.6034 946.698 49.8022 947.52 48.2549C948.342 46.7076 949.484 45.4988 950.947 44.6284C952.41 43.758 954.102 43.3229 956.024 43.3229C957.995 43.3229 959.711 43.7641 961.174 44.6465C962.637 45.529 963.773 46.7499 964.583 48.3093C965.393 49.8566 965.798 51.6397 965.798 53.6584C965.798 55.6893 965.387 57.4844 964.565 59.0438C963.755 60.5911 962.618 61.806 961.156 62.6884C959.693 63.5588 957.983 63.994 956.024 63.994ZM956.024 59.896C957.765 59.896 959.058 59.3158 959.905 58.1553C960.751 56.9948 961.174 55.4959 961.174 53.6584C961.174 51.7605 960.745 50.2495 959.886 49.1253C959.028 47.989 957.741 47.4208 956.024 47.4208C954.852 47.4208 953.885 47.6868 953.123 48.2186C952.374 48.7384 951.817 49.4698 951.455 50.4127C951.092 51.3435 950.911 52.4254 950.911 53.6584C950.911 55.5563 951.34 57.0734 952.198 58.2097C953.069 59.3339 954.344 59.896 956.024 59.896Z" fill="white"/>
<path d="M833.765 49.45H848.082C852.966 49.45 856.924 53.4088 856.924 58.2921V58.2921C856.924 63.1755 852.966 67.1343 848.082 67.1343H833.765V49.45Z" fill="white"/>
<path d="M833.765 33.9764H843.244C846.907 33.9764 849.876 36.9454 849.876 40.608V40.608C849.876 44.2705 846.907 47.2395 843.244 47.2395H833.765V33.9764Z" fill="white"/>
<g clip-path="url(#clip5_709_758)">
<g clip-path="url(#clip6_709_758)">
<path d="M1044.83 35.6928C1044.79 35.6207 1044.76 35.5418 1044.76 35.4609C1044.75 35.3799 1044.76 35.2984 1044.78 35.2209C1044.81 35.1435 1044.85 35.0717 1044.9 35.0095C1044.95 34.9474 1045.02 34.8962 1045.09 34.8588C1047.3 33.7328 1049.76 33.1756 1052.25 33.2374C1054.73 33.2991 1057.16 33.9779 1059.32 35.2126C1059.39 35.2532 1059.45 35.3075 1059.5 35.3722C1059.55 35.4369 1059.58 35.5108 1059.6 35.5897C1059.63 35.6685 1059.63 35.7507 1059.62 35.8315C1059.61 35.9123 1059.58 35.9902 1059.54 36.0605L1052.42 48.2818C1052.36 48.3754 1052.29 48.4531 1052.19 48.507C1052.1 48.5609 1051.99 48.5892 1051.88 48.589H1051.87C1051.76 48.5861 1051.65 48.5535 1051.56 48.4947C1051.46 48.4359 1051.39 48.353 1051.33 48.2546L1044.83 35.6928ZM1051.5 51.8484V51.8471L1044.99 39.2853C1044.92 39.1399 1044.79 39.0303 1044.63 38.9804C1044.48 38.9306 1044.31 38.9445 1044.16 39.0192C1042.43 39.9087 1040.88 41.132 1039.62 42.619C1038.36 44.106 1037.41 45.8273 1036.81 47.6842C1036.22 49.541 1036 51.4969 1036.16 53.4395C1036.33 55.3822 1036.87 57.2733 1037.77 59.0043C1038.67 60.7354 1039.89 62.2723 1041.39 63.5269C1042.88 64.7815 1044.6 65.729 1046.46 66.3151C1048.32 66.9013 1050.28 67.1144 1052.22 66.9424C1054.16 66.7703 1056.05 66.2164 1057.78 65.3125C1057.93 65.2366 1058.03 65.1063 1058.08 64.9501C1058.13 64.794 1058.12 64.6247 1058.04 64.4791L1051.5 51.8484ZM1059.13 63.7219L1059.18 63.821C1059.26 63.9671 1059.39 64.0782 1059.54 64.1306C1059.6 64.1518 1059.67 64.1602 1059.74 64.1554C1059.84 64.1527 1059.93 64.1317 1060.02 64.0935C1060.25 63.9817 1060.47 63.8577 1060.68 63.7219C1061.31 63.3564 1061.91 62.9422 1062.48 62.4832H1058.49L1059.13 63.7219ZM1057.84 61.2446H1063.83C1064.21 60.8581 1064.57 60.4441 1064.89 60.006H1057.2L1057.84 61.2446ZM1056.57 58.7673H1065.77C1066.03 58.3696 1066.25 57.9559 1066.45 57.5287H1055.92L1056.57 58.7673ZM1055.28 56.29H1067C1067.16 55.8857 1067.3 55.4721 1067.42 55.0514H1054.64L1055.28 56.29ZM1053.99 53.8127H1067.73C1067.8 53.404 1067.86 52.9952 1067.9 52.5741H1053.36L1053.99 53.8127ZM1060.63 38.1563C1060.56 38.1131 1060.48 38.0852 1060.4 38.0745C1060.32 38.0638 1060.24 38.0706 1060.16 38.0944C1060.08 38.1127 1060 38.1475 1059.94 38.1965C1059.87 38.2456 1059.82 38.3078 1059.78 38.3793L1059.44 38.9491H1061.83C1061.45 38.6635 1061.05 38.3989 1060.63 38.1563ZM1063.33 40.1877H1058.72L1058.01 41.4263H1064.51C1064.14 40.9897 1063.75 40.5761 1063.33 40.1877ZM1065.44 42.665H1057.27L1056.56 43.9036H1066.19C1065.97 43.4741 1065.72 43.0603 1065.44 42.665ZM1066.79 45.1423H1055.84L1055.12 46.3809H1067.27C1067.13 45.9592 1066.97 45.5456 1066.79 45.1423ZM1067.62 47.6195H1054.39L1053.67 48.8582H1067.84C1067.79 48.4412 1067.72 48.0275 1067.62 47.6195ZM1067.96 50.0968H1052.95L1052.65 50.6047C1052.6 50.6941 1052.57 50.796 1052.57 50.9003C1052.57 51.0046 1052.59 51.1076 1052.64 51.1992L1052.72 51.3355H1067.99C1068 51.2116 1068 51.0754 1068 50.9515C1068 50.6666 1067.99 50.3817 1067.96 50.0968Z" fill="white"/>
<path d="M1044.54 38.407C1044.31 37.9767 1043.78 37.8099 1043.36 38.0607C1040.06 40.0461 1037.6 43.182 1036.45 46.8808C1035.22 50.861 1035.62 55.1669 1037.57 58.8512C1039.51 62.5356 1042.84 65.2967 1046.82 66.5271C1050.52 67.6705 1054.5 67.4049 1058 65.801C1058.44 65.5985 1058.61 65.0632 1058.38 64.6329L1051.46 51.52L1044.54 38.407Z" fill="white"/>
</g>
<path d="M1090.1 39.4869C1091.82 39.4869 1093.29 39.7632 1094.5 40.3157C1095.71 40.8683 1096.64 41.6653 1097.27 42.7067C1097.91 43.748 1098.23 45.0125 1098.23 46.5002C1098.23 47.9879 1097.91 49.2524 1097.27 50.2938C1096.64 51.3352 1095.71 52.1321 1094.5 52.6847C1093.29 53.2373 1091.82 53.5136 1090.1 53.5136H1085.93V60.5269H1080.44V39.4869H1090.1ZM1089.24 49.4012C1090.39 49.4012 1091.25 49.1674 1091.82 48.6999C1092.42 48.2111 1092.72 47.4778 1092.72 46.5002C1092.72 45.5226 1092.42 44.8 1091.82 44.3325C1091.25 43.8437 1090.39 43.5993 1089.24 43.5993H1085.93V49.4012H1089.24ZM1101.35 60.5269V44.5875H1106.14L1106.36 48.0304C1106.76 46.8403 1107.36 45.9158 1108.14 45.257C1108.95 44.5981 1109.97 44.2687 1111.2 44.2687C1111.61 44.2687 1111.95 44.3006 1112.22 44.3643C1112.52 44.4281 1112.76 44.5131 1112.93 44.6194L1112.38 49.0824C1112.17 48.9974 1111.89 48.9336 1111.55 48.8911C1111.24 48.8274 1110.84 48.7955 1110.38 48.7955C1109.74 48.7955 1109.14 48.9336 1108.59 49.2099C1108.04 49.4862 1107.59 49.9006 1107.25 50.4532C1106.93 50.9845 1106.77 51.6646 1106.77 52.4934V60.5269H1101.35ZM1122.64 60.8457C1120.88 60.8457 1119.35 60.5163 1118.05 59.8574C1116.78 59.1986 1115.79 58.2529 1115.09 57.0202C1114.39 55.7876 1114.04 54.2999 1114.04 52.5572C1114.04 50.8145 1114.39 49.3268 1115.09 48.0942C1115.79 46.8615 1116.77 45.9158 1118.02 45.257C1119.3 44.5981 1120.75 44.2687 1122.39 44.2687C1124.07 44.2687 1125.49 44.5981 1126.66 45.257C1127.85 45.8945 1128.75 46.7871 1129.37 47.9348C1129.99 49.0612 1130.29 50.3576 1130.29 51.824C1130.29 52.2065 1130.28 52.5891 1130.26 52.9716C1130.24 53.3542 1130.21 53.6729 1130.17 53.928H1117.54V51.027H1127.78L1125.19 52.0153C1125.19 50.7401 1124.96 49.7625 1124.49 49.0824C1124.05 48.4023 1123.34 48.0623 1122.39 48.0623C1121.71 48.0623 1121.12 48.2217 1120.63 48.5405C1120.17 48.8593 1119.81 49.3587 1119.55 50.0388C1119.32 50.7188 1119.2 51.5902 1119.2 52.6528C1119.2 53.6942 1119.34 54.5443 1119.61 55.2031C1119.89 55.8407 1120.28 56.3083 1120.79 56.6058C1121.3 56.8821 1121.92 57.0202 1122.64 57.0202C1123.45 57.0202 1124.09 56.8608 1124.56 56.542C1125.04 56.2233 1125.41 55.7769 1125.64 55.2031L1129.98 56.6377C1129.68 57.5515 1129.16 58.3273 1128.41 58.9648C1127.69 59.5811 1126.82 60.0487 1125.8 60.3675C1124.8 60.6863 1123.75 60.8457 1122.64 60.8457ZM1140.02 60.8457C1138.43 60.8457 1136.94 60.5906 1135.56 60.0806C1134.2 59.5493 1133.07 58.7948 1132.18 57.8172L1134.73 54.8206C1135.26 55.5007 1135.96 56.0745 1136.83 56.542C1137.72 56.9883 1138.71 57.2115 1139.8 57.2115C1140.46 57.2115 1141 57.1159 1141.42 56.9246C1141.85 56.7333 1142.06 56.4358 1142.06 56.032C1142.06 55.7344 1141.95 55.5007 1141.74 55.3306C1141.53 55.1394 1141.1 54.98 1140.47 54.8525L1138.24 54.4062C1136.24 54.0024 1134.81 53.4073 1133.96 52.6209C1133.13 51.8134 1132.72 50.7614 1132.72 49.465C1132.72 48.5936 1132.99 47.7647 1133.52 46.9784C1134.05 46.1708 1134.87 45.5226 1135.97 45.0338C1137.08 44.5237 1138.49 44.2687 1140.21 44.2687C1141.83 44.2687 1143.25 44.5025 1144.48 44.97C1145.72 45.4376 1146.69 46.1177 1147.42 47.0103L1144.83 49.9431C1144.32 49.3056 1143.67 48.8061 1142.86 48.4448C1142.05 48.0835 1141.24 47.9029 1140.43 47.9029C1139.92 47.9029 1139.49 47.956 1139.13 48.0623C1138.79 48.1473 1138.53 48.2748 1138.36 48.4448C1138.19 48.6148 1138.11 48.8274 1138.11 49.0824C1138.11 49.3587 1138.24 49.6031 1138.49 49.8156C1138.77 50.0069 1139.27 50.1769 1139.99 50.3257L1142.89 50.8995C1144.53 51.197 1145.71 51.739 1146.43 52.5253C1147.15 53.3117 1147.51 54.2574 1147.51 55.3625C1147.51 56.4039 1147.24 57.339 1146.68 58.1679C1146.13 58.9967 1145.3 59.6555 1144.2 60.1443C1143.09 60.6119 1141.7 60.8457 1140.02 60.8457ZM1156.99 39.5188V54.8525C1156.99 55.6176 1157.17 56.1701 1157.53 56.5102C1157.91 56.8289 1158.43 56.9883 1159.09 56.9883C1159.6 56.9883 1160.04 56.9352 1160.4 56.8289C1160.78 56.7014 1161.12 56.5208 1161.42 56.287L1161.99 59.6343C1161.46 60.0168 1160.79 60.3144 1159.98 60.5269C1159.18 60.7394 1158.35 60.8457 1157.5 60.8457C1156.28 60.8457 1155.23 60.6757 1154.34 60.3356C1153.47 59.9956 1152.79 59.4536 1152.3 58.7098C1151.83 57.966 1151.59 56.9777 1151.57 55.7451V41.0171L1156.99 39.5188ZM1161.74 44.5875V48.4448H1148.83V44.5875H1161.74ZM1171.83 44.2687C1173.51 44.2687 1174.97 44.5981 1176.23 45.257C1177.5 45.8945 1178.49 46.8403 1179.19 48.0942C1179.91 49.3268 1180.27 50.8145 1180.27 52.5572C1180.27 54.2999 1179.91 55.7982 1179.19 57.0521C1178.49 58.2847 1177.5 59.2305 1176.23 59.8893C1174.97 60.5269 1173.51 60.8457 1171.83 60.8457C1170.19 60.8457 1168.73 60.5269 1167.46 59.8893C1166.18 59.2305 1165.19 58.2847 1164.46 57.0521C1163.76 55.7982 1163.41 54.2999 1163.41 52.5572C1163.41 50.8145 1163.76 49.3268 1164.46 48.0942C1165.19 46.8403 1166.18 45.8945 1167.46 45.257C1168.73 44.5981 1170.19 44.2687 1171.83 44.2687ZM1171.83 48.126C1171.21 48.126 1170.68 48.2748 1170.23 48.5723C1169.79 48.8699 1169.45 49.3481 1169.21 50.0069C1168.98 50.6657 1168.86 51.5158 1168.86 52.5572C1168.86 53.5986 1168.98 54.4487 1169.21 55.1075C1169.45 55.7451 1169.79 56.2233 1170.23 56.542C1170.68 56.8396 1171.21 56.9883 1171.83 56.9883C1172.46 56.9883 1173.01 56.8396 1173.45 56.542C1173.9 56.2233 1174.24 55.7451 1174.47 55.1075C1174.71 54.4487 1174.82 53.5986 1174.82 52.5572C1174.82 51.5158 1174.71 50.6657 1174.47 50.0069C1174.24 49.3481 1173.9 48.8699 1173.45 48.5723C1173.01 48.2748 1172.46 48.126 1171.83 48.126Z" fill="white"/>
</g>
</g>
<rect width="1173" height="93" fill="url(#paint0_linear_709_758)"/>
<defs>
<linearGradient id="paint0_linear_709_758" x1="0" y1="93" x2="1148" y2="92.9998" gradientUnits="userSpaceOnUse">
<stop stop-color="#0A2640"/>
<stop offset="0.322917" stop-color="#0A2640" stop-opacity="0.109375"/>
<stop offset="0.744792" stop-color="#0A2640" stop-opacity="0"/>
<stop offset="1" stop-color="#0A2640"/>
</linearGradient>
<clipPath id="clip0_709_758">
<rect width="1120" height="48" fill="white" transform="translate(27 33)"/>
</clipPath>
<clipPath id="clip1_709_758">
<rect width="146.513" height="41.2903" fill="white" transform="translate(228.18 28.5269)"/>
</clipPath>
<clipPath id="clip2_709_758">
<rect width="32.745" height="34.8351" fill="white" transform="translate(227.988 32.6807)"/>
</clipPath>
<clipPath id="clip3_709_758">
<rect width="146.513" height="41.2903" fill="white" transform="translate(631.922 28.5269)"/>
</clipPath>
<clipPath id="clip4_709_758">
<rect width="32.745" height="34.8351" fill="white" transform="translate(631.731 32.6807)"/>
</clipPath>
<clipPath id="clip5_709_758">
<rect width="146.513" height="41.2903" fill="white" transform="translate(1035.67 28.5269)"/>
</clipPath>
<clipPath id="clip6_709_758">
<rect width="32.745" height="34.8351" fill="white" transform="translate(1035.47 32.6807)"/>
</clipPath>
</defs>
</svg>
